<?xml version="1.0" standalone="no"?>
<!DOCTYPE svg PUBLIC "-//W3C//DTD SVG 20010904//EN"
 "http://www.w3.org/TR/2001/REC-SVG-20010904/DTD/svg10.dtd">
<svg version="1.0" xmlns="http://www.w3.org/2000/svg"
 width="700.000000pt" height="700.000000pt" viewBox="0 0 700.000000 700.000000"
 preserveAspectRatio="xMidYMid meet">
<metadata>
Created by potrace 1.14, written by Peter Selinger 2001-2017
</metadata>
<g transform="translate(0.000000,700.000000) scale(0.100000,-0.100000)"
fill="#000000" stroke="none">
<path d="M3425 5594 c-50 -26 -130 -68 -415 -219 -85 -45 -209 -111 -275 -145
-66 -35 -147 -77 -180 -95 -33 -18 -123 -65 -200 -105 -271 -141 -262 -128
-261 -404 1 -124 -3 -196 -9 -196 -5 0 -65 28 -133 62 -178 91 -164 94 -517
-97 -33 -18 -105 -56 -160 -85 -55 -29 -136 -72 -180 -95 -128 -68 -262 -138
-370 -195 -311 -163 -330 -175 -353 -229 -15 -36 -18 -476 -9 -1743 2 -355 -2
-335 81 -402 l38 -31 1281 0 1282 1 46 22 c31 15 53 35 70 65 l24 42 0 465 0
465 333 3 332 2 0 -462 c0 -441 1 -464 20 -503 22 -45 58 -76 105 -91 19 -7
498 -10 1301 -9 l1271 0 40 27 c22 15 51 43 64 64 l23 37 -1 1028 -1 1027 -23
41 c-13 23 -37 50 -54 60 -34 21 -397 207 -1100 565 -229 116 -218 115 -412
15 -85 -43 -155 -79 -157 -79 -2 0 -4 104 -5 231 -1 246 -5 272 -54 317 -12
11 -143 82 -292 157 -148 76 -337 172 -420 215 -82 43 -249 127 -371 189 -249
125 -270 130 -359 85z m176 -382 c41 -21 218 -112 394 -202 459 -234 569 -291
575 -300 8 -12 4 -485 -3 -497 -4 -6 -48 -32 -98 -58 -50 -26 -112 -58 -137
-72 -26 -14 -96 -51 -157 -83 -275 -144 -283 -150 -313 -205 -14 -26 -16 -79
-16 -397 l0 -368 -328 0 c-180 0 -329 3 -329 8 -1 4 -2 176 -3 382 -2 341 -4
378 -20 413 -27 56 -24 54 -501 295 l-221 112 -1 219 -2 220 82 44 c94 51 186
100 342 182 61 32 146 77 190 100 44 23 134 71 200 106 66 34 152 80 190 101
39 21 73 38 76 38 3 0 39 -17 80 -38z m-1511 -1180 c2 -1 5 -271 7 -599 2
-355 7 -611 13 -633 12 -43 46 -81 94 -104 29 -14 80 -16 333 -16 l300 0 -1
-357 -1 -358 -1062 -1 -1063 0 0 405 c-1 224 -2 595 -3 826 l-2 420 40 22 c22
12 85 45 140 73 55 29 123 65 150 80 28 15 104 55 170 90 148 77 228 120 370
196 61 32 133 70 160 84 l50 26 150 -75 c83 -42 152 -77 155 -79z m3275 108
c115 -60 742 -380 852 -434 56 -28 103 -58 105 -66 2 -8 4 -388 3 -845 l0
-830 -1058 -1 c-675 0 -1060 3 -1064 10 -4 5 -7 166 -7 358 -1 342 -1 348 19
348 11 1 143 1 293 1 159 0 285 4 300 10 34 13 79 56 100 94 13 26 15 102 15
623 -1 543 0 594 15 600 10 3 37 18 62 32 25 15 90 51 145 79 55 29 104 56
109 61 10 10 21 6 111 -40z m-2528 -800 l0 -310 -194 0 c-177 0 -193 1 -194
18 0 9 -2 193 -3 409 l-1 391 196 -99 195 -99 1 -310z m1737 92 c-1 -207 -2
-383 -3 -389 -1 -10 -46 -13 -189 -13 l-187 0 -1 294 -1 293 61 31 c34 17 115
60 181 96 66 35 125 65 130 65 7 1 10 -130 9 -377z"/>
</g>
</svg>
